<?xml version="1.0" encoding="utf-8"?>
<!-- Generator: Adobe Illustrator 24.1.1, SVG Export Plug-In . SVG Version: 6.00 Build 0)  -->
<svg version="1.1" id="Layer_1" xmlns="http://www.w3.org/2000/svg" xmlns:xlink="http://www.w3.org/1999/xlink" x="0px" y="0px"
	 viewBox="0 0 2048 2048" style="enable-background:new 0 0 2048 2048;" xml:space="preserve">
<style type="text/css">
	.st0{fill:#01D243;}
</style>
<rect width="2048" height="2048"/>
<path class="st0" d="M869.76,924.28c-29.43,19.6-56.78,16.64-81.62-11.5c-189.45,192.92-325.56,412.36-374.38,680
	c-10.86-2.61-12.1-9.78-13.86-16.49c-23.78-90.56-24.05-182.42-12.95-274.44c23.76-196.97,103.38-370.15,226.49-524.38
	c3.95-4.95,7.45-10.25,11.5-15.84c-2.33-6.12-4.56-11.99-6.66-17.54c1.65-17.06,20.05-28.2,15.86-46.45
	c-3.74-16.29-20.73-23.98-28.29-41.03c29.33-54.28,72.22-96.11,127.09-129.31c26.14,22.68,47.93,59.83,83.31,25.61
	c15.19,1.82,20.62,11.68,34.26,15.37c68.81-37.52,141.96-73.59,220.23-97.58c78.71-24.12,158.95-37.92,241.69-37.18
	c81.52,0.72,162.96,0.09,241.46,33.73c-204.42,48.41-391.59,130.73-557.19,265.85c24.11,24.28,24.26,48.63,3.31,71.16
	c1.36,10.31,8.46,14.46,13.76,19.71c206.34,204.57,412.44,409.37,619.49,613.21c28.97,28.52,41.39,60.28,31.44,98.52
	c-10.43,40.08-37.1,66.3-78.32,76.13c-33.76,8.05-64.04-2.34-81.02-30.11c-54.3-88.81-134.16-154.1-204.92-227.43
	c-133.29-138.13-269.92-273.05-405.24-409.23C888.1,937.9,881.88,929.49,869.76,924.28z"/>
</svg>
