<?xml version="1.0" encoding="utf-8"?>
<!-- Generator: Adobe Illustrator 24.1.1, SVG Export Plug-In . SVG Version: 6.00 Build 0)  -->
<svg version="1.1" id="Layer_1" xmlns="http://www.w3.org/2000/svg" xmlns:xlink="http://www.w3.org/1999/xlink" x="0px" y="0px"
	 viewBox="0 0 2048 2048" style="enable-background:new 0 0 2048 2048;" xml:space="preserve">
<style type="text/css">
	.st0{fill:#01D243;}
</style>
<rect width="2048" height="2048"/>
<g>
	<g>
		<path class="st0" d="M902.33,553.78c-24.51,16.32-47.27,13.85-67.95-9.58c-157.72,160.61-271.03,343.3-311.68,566.12
			c-9.04-2.18-10.07-8.14-11.54-13.73c-19.79-75.39-20.02-151.87-10.78-228.48c19.78-163.98,86.07-308.16,188.56-436.56
			c3.29-4.12,6.21-8.53,9.57-13.19c-1.94-5.1-3.79-9.98-5.55-14.6c1.37-14.2,16.7-23.48,13.21-38.67
			c-3.11-13.56-17.26-19.97-23.55-34.16c24.42-45.19,60.13-80.01,105.81-107.65c21.76,18.88,39.9,49.81,69.36,21.32
			c12.64,1.51,17.17,9.72,28.52,12.8c57.29-31.24,118.19-61.27,183.35-81.24c65.53-20.08,132.33-31.57,201.22-30.96
			c67.87,0.6,135.67,0.07,201.03,28.08c-170.18,40.31-326.01,108.84-463.87,221.33c20.07,20.22,20.2,40.49,2.76,59.24
			c1.14,8.59,7.04,12.04,11.46,16.41c171.78,170.31,343.37,340.81,515.75,510.52c24.12,23.74,34.46,50.19,26.17,82.02
			c-8.68,33.36-30.89,55.2-65.2,63.38c-28.1,6.7-53.32-1.94-67.45-25.06c-45.21-73.94-111.69-128.3-170.6-189.35
			c-110.97-115-224.72-227.32-337.37-340.69C917.6,565.12,912.42,558.12,902.33,553.78z"/>
		<g>
			<path class="st0" d="M1321.84,1531.21c0,25.29,0.1,50.58-0.03,75.88c-0.1,20.24-0.5,40.47-0.7,60.71
				c-0.11,10.44-4.04,18.08-15.5,18.2c-30.29,0.32-60.58,0.11-89.23,0.11c-9.57-6.81-10.81-14.98-10.82-23.81
				c-0.09-113.46-0.33-226.91-0.3-340.37c0.01-20.06,5.88-25.59,25.88-25.69c30.87-0.16,61.73-0.04,95.17-0.04
				c33.12,55.19,59.85,114.62,91.68,170.22c7.18,0.52,8.34-3.91,10.29-7.65c26.07-49.91,52.34-99.72,78.16-149.76
				c4.45-8.62,10.44-13.06,19.95-13.07c29.3-0.01,58.59-0.06,87.89-0.02c5.44,0.01,10.63,1,15.57,6.89c0,125.53,0,252.39,0,382.03
				c-35.79,2.47-70.03,1.23-102.83,0.76c-9.03-7.5-8.86-16.19-8.87-24.71c-0.06-37.82,0.02-75.64-0.06-113.46
				c-0.01-5.58,1.32-11.53-2-16.3c-7.1-0.53-7.25,4.78-9.09,8.23c-16.98,31.9-34.54,63.51-50.5,95.91
				c-7.4,15.02-17.48,21.72-33.83,20.23c-8.93-0.81-18.12,0.47-28.03-4.01c-22.38-40.04-45.22-80.92-68.07-121.8
				C1324.98,1530.21,1323.41,1530.71,1321.84,1531.21z"/>
			<path class="st0" d="M526.89,1684.54c-38.44,3.29-73.08,2.28-109.32,1.1c0-130,0-257.46,0-383.77
				c6.67-6.93,13.89-5.92,20.68-5.98c20.78-0.17,41.57,0.4,62.33-0.25c15.48-0.49,26.25,5.69,34.59,18.48
				c30.8,47.23,61.89,94.26,93.09,141.23c3.36,5.05,5.07,11.92,12.28,14.02c6.27-4.31,3.66-10.71,3.69-16.04
				c0.26-43.15-0.05-86.31,0.3-129.47c0.2-24.34,3.93-27.78,27.99-27.98c20.78-0.17,41.56-0.01,62.34-0.02
				c7.63,0,14.99,0.65,20.39,7.59c3.25,5.62,2.32,12.15,2.32,18.46c0.07,112.95,0.09,225.91,0.03,338.86
				c-0.01,23.01-2.53,25.34-25.96,25.38c-26.54,0.03-53.07,0.01-79.05,0.01c-40.8-59.26-78.33-118.41-120.13-174.53
				c-1.85,0.37-3.71,0.73-5.56,1.1C526.89,1569.43,526.89,1626.11,526.89,1684.54z"/>
			<path class="st0" d="M924.53,1628.69c-8.97,10.76-10.06,25.71-15.04,38.96c-4.73,12.6-11.79,19.2-25.72,18.99
				c-29.19-0.43-58.4-0.13-85.14-0.13c-13.63-9.86-8.45-20.37-5.49-29.4c12.25-37.32,25.33-74.36,38.08-111.51
				c25.49-74.32,51.16-148.58,76.32-223.01c7.84-23.2,11.04-26.53,34.69-26.7c28.21-0.2,56.43,0.19,84.63-0.27
				c14.88-0.24,23.25,5.86,28.09,20.3c30.51,91.1,61.65,181.99,92.55,272.96c9.55,28.12,19.01,56.26,27.96,82.77
				c-2.13,8.94-6.33,14.27-13.34,14.36c-32.88,0.43-65.77,0.19-97.72,0.19c-14.4-17.19-14.57-38.22-24.55-57.5
				C1002.82,1628.69,964.88,1628.69,924.53,1628.69z M1015.02,1530.41c-10.5-31.31-20.31-60.54-30.11-89.76
				c-15.27,28.83-24.64,58.36-32.66,90.01C974.21,1533.96,993.34,1534.55,1015.02,1530.41z"/>
			<path class="st0" d="M730.62,1723.81c15.82-16.11,32.84-8.46,50.96-8.53c6.11,27.83,12.04,54.86,17.98,81.9
				c16.59-25.9,16.15-56.29,29.92-81.38c13.98-2.67,26.55-2.22,40.09-0.14c12.9,27.24,13.03,58.7,28.26,90.38
				c6.91-32.73,12.86-60.91,18.97-89.84c16.73-2.95,32.22-3.37,48.68,0.44c2.94,19.51-5.47,36.36-8.88,53.69
				c-7.5,38.06-17.59,75.6-25.45,113.59c-2.69,13-8.63,18.4-21.5,17.87c-11.07-0.45-22.18-0.09-32.87-0.09
				c-14.84-24.5-15.14-52.77-26.18-76.96c-1.36,0.14-2.73,0.28-4.09,0.43c-5.3,19.19-11.36,38.22-15.63,57.63
				c-3.09,14.04-10.36,19.93-24.45,19.11c-10-0.58-20.06-0.11-33.05-0.11C759.05,1842.23,744.97,1783.61,730.62,1723.81z"/>
			<path class="st0" d="M470.13,1833.95c-6.7,16.13-4.16,26.88-4.63,37.37c-0.48,10.57,1.1,21.6-9.57,29.68
				c-10.92,1.39-22.46,1.88-33.67-0.2c-7.34-11.9-9.53-163.38-2.06-185.94c31.72,0.64,64.93-5.99,96.78,3.59
				c47.66,14.34,58.96,67.77,23.18,102.59c-2.26,2.2-5.25,3.64-8.07,5.56c7.98,24,24.64,41.66,31.34,63.57
				c-13.47,19.04-31.61,9.43-45.43,11.43C495.7,1883.66,493.9,1852.77,470.13,1833.95z M469.01,1760.92
				c-7.06,10.24-6.32,20.11-1.65,31.11c10.71,4.59,21.35,2.74,32.35-0.51c6.65-7,11.25-14.96,4.04-23.68
				C494.29,1756.41,481.52,1758.45,469.01,1760.92z"/>
			<path class="st0" d="M1195.45,1901.35c-11.99,0-22.02,0-31.16,0c-7.85-5.32-9.48-12.41-9.79-20.1c-2.02-49.99-1.82-100-0.65-150
				c0.11-4.84,0.8-9.57,4.86-13.74c7.11-5.38,15.96-3.28,24.21-2.95c24.34,0.97,49.09-3.85,72.98,3.65
				c41.67,13.07,56.07,57.94,30.12,93.23c-4.37,5.94-9.45,11.35-15.2,18.2c10.9,20.28,21.85,40.65,32.75,60.93
				c-13.78,18.2-31.83,9.12-47.4,11.03c-20.83-17.83-22.96-48.63-45.93-66.69C1197.83,1858.15,1215.48,1883.78,1195.45,1901.35z
				 M1207.5,1792.97c10.89,3.67,22.34,4.27,32.84-2.38c7.91-5.01,7.87-13.17,4.81-21.93c-10.99-10.13-23.62-12.02-37.37-7.05
				C1203.44,1775.95,1203.43,1777.32,1207.5,1792.97z"/>
			<path class="st0" d="M1325.54,1715.04c36.88-0.15,69.79-5.04,101.94,5.59c31.29,10.35,42.51,35.65,48.6,65.28
				c8.74,42.52-8.84,87.39-42.48,104.83c-11.8,6.12-24.57,10.31-37.91,10.67c-21.74,0.59-43.5,0.16-69.52,0.16
				C1324.79,1839.66,1325.73,1778.67,1325.54,1715.04z M1374.65,1848.1c20.16,13,40.05,6.35,45.59-14.05
				c4.53-16.68,5.09-33.69,0.99-50.63c-3.39-14.04-16.07-24.11-30.04-23.98c-9.9,0.09-16.52,3.96-16.53,14.97
				C1374.64,1798.88,1374.65,1823.34,1374.65,1848.1z"/>
			<path class="st0" d="M713.23,1757.06c-25.52,7.52-50.96,0.55-74.68,5.26c-5.26,6.58-4.54,12.6-1.13,20.78
				c18.56,5.22,39.09-0.19,58.75,3.5c9.66,9.43,11.34,20.51,6.83,32.35c-4.75,12.45-16.2,9.64-26.04,10.23
				c-13.14,0.78-26.54-2.45-39.42,2.12c-4.75,6.77-2.81,13.3-1.23,20.85c25.4,8.74,52.42-1.2,78.57,8.08
				c3.32,13.88,6.31,27.49-5.84,40.75c-35.92,0-72.04-0.07-108.16,0.06c-7.28,0.03-11.72-4.09-17.76-11.08
				c0-30.48,0.03-62.88-0.01-95.28c-0.03-20.76-0.1-41.51-0.26-62.27c-0.08-9.94,4-17.37,14.35-17.5
				c35.11-0.45,70.23-0.13,105.35,0.11c2.44,0.02,4.87,1.81,8.01,3.05C717.11,1730.56,713.66,1743.5,713.23,1757.06z"/>
			<path class="st0" d="M1136.86,1889.92c-13.18,18.16-30.7,10.31-45.22,11.46c-12.69-5.86-11.62-19.83-20.67-28.47
				c-14.2-1.68-29.38-2.63-43.65,0.23c-10.99,6.99-7.5,22.51-21.73,28.39c-12.54-2.21-29.5,7.31-43.52-10.14
				c19.84-58.18,39.94-117.11,60.03-175.99c20.83-0.91,38.62-3.33,56.48,1.11C1098.3,1775.15,1117.68,1832.83,1136.86,1889.92z
				 M1049.03,1786.18c-6.28,13.01-12.58,25.5-10.91,39.95c8.17,3.46,15.01,4.14,22.03-1.31
				C1061.77,1810.64,1054.34,1798.82,1049.03,1786.18z"/>
			<path class="st0" d="M1495.11,1843.98c17.4-4.59,32.88-7.79,46.68,8.9c9.43,11.4,22.91,12.41,35.64,4.02
				c3.95-5.13,4.17-10.07,0.93-16.12c-13.59-8.34-29.86-11.82-45.11-17.77c-36.18-14.1-50.88-49.33-33.86-81.37
				c7.08-13.33,19.51-19.38,32.7-23.82c28.94-9.74,56.78-7.41,82.03,10.76c14.68,10.57,18.14,24.08,11.21,42
				c-15.65,2.86-31.65,8.25-46.16-6.94c-9.22-9.66-20.91-8.58-31.99-4.19c-4.13,5.44-4.02,10.38-0.51,16.34
				c14.15,8.23,31.13,11.2,46.93,17.2c32.06,12.17,42.8,30.96,37.56,67.81c-2.79,19.65-29.96,40.72-54.7,41.41
				c-20.56,0.57-41.29,2.83-60.75-7.92C1494.76,1882.71,1487.65,1867.75,1495.11,1843.98z"/>
		</g>
	</g>
</g>
</svg>
