<?xml version="1.0" encoding="utf-8"?>
<!-- Generator: Adobe Illustrator 24.1.1, SVG Export Plug-In . SVG Version: 6.00 Build 0)  -->
<svg version="1.1" id="Layer_1" xmlns="http://www.w3.org/2000/svg" xmlns:xlink="http://www.w3.org/1999/xlink" x="0px" y="0px"
	 viewBox="0 0 2048 2048" style="enable-background:new 0 0 2048 2048;" xml:space="preserve">
<style type="text/css">
	.st0{fill:#01D243;}
</style>
<rect y="363" width="2048" height="1254"/>
<g>
	<path class="st0" d="M329.57,974.63c-14.57,9.7-28.12,8.24-40.42-5.7c-93.8,95.52-161.2,204.18-185.37,336.7
		c-5.38-1.29-5.99-4.84-6.86-8.16c-11.77-44.84-11.91-90.32-6.41-135.89c11.76-97.53,51.19-183.28,112.15-259.64
		c1.95-2.45,3.69-5.07,5.69-7.84c-1.15-3.03-2.26-5.94-3.3-8.68c0.81-8.45,9.93-13.96,7.85-23c-1.85-8.06-10.27-11.88-14.01-20.32
		c14.52-26.88,35.76-47.59,62.93-64.03c12.94,11.23,23.73,29.63,41.25,12.68c7.52,0.9,10.21,5.78,16.96,7.61
		c34.07-18.58,70.29-36.44,109.05-48.32c38.97-11.94,78.71-18.77,119.67-18.41c40.36,0.36,80.69,0.04,119.56,16.7
		c-101.21,23.97-193.9,64.73-275.89,131.63c11.94,12.02,12.01,24.08,1.64,35.23c0.68,5.11,4.19,7.16,6.81,9.76
		c102.17,101.29,204.22,202.7,306.74,303.63c14.34,14.12,20.49,29.85,15.57,48.78c-5.16,19.84-18.37,32.83-38.78,37.7
		c-16.71,3.99-31.71-1.16-40.12-14.91c-26.89-43.97-66.43-76.3-101.46-112.61c-66-68.4-133.65-135.2-200.65-202.63
		C338.65,981.37,335.56,977.2,329.57,974.63z"/>
	<g>
		<path class="st0" d="M1662.12,958.58c0,24.34,0.09,48.68-0.03,73.01c-0.1,19.47-0.48,38.95-0.68,58.42
			c-0.1,10.05-3.89,17.4-14.92,17.51c-29.14,0.3-58.29,0.1-85.86,0.1c-9.21-6.55-10.4-14.41-10.41-22.91
			c-0.09-109.17-0.31-218.35-0.29-327.52c0-19.3,5.66-24.62,24.9-24.72c29.7-0.15,59.4-0.04,91.57-0.04
			c31.87,53.11,57.59,110.3,88.22,163.8c6.91,0.5,8.02-3.77,9.9-7.36c25.09-48.03,50.37-95.95,75.21-144.11
			c4.28-8.3,10.04-12.57,19.2-12.57c28.19-0.01,56.38-0.06,84.57-0.02c5.24,0.01,10.22,0.97,14.98,6.63c0,120.79,0,242.86,0,367.61
			c-34.44,2.38-67.38,1.18-98.95,0.73c-8.69-7.22-8.52-15.58-8.54-23.78c-0.05-36.39,0.02-72.78-0.06-109.18
			c-0.01-5.37,1.27-11.1-1.93-15.68c-6.83-0.51-6.98,4.6-8.75,7.92c-16.34,30.69-33.24,61.11-48.59,92.29
			c-7.12,14.46-16.82,20.9-32.56,19.47c-8.59-0.78-17.44,0.45-26.97-3.86c-21.53-38.53-43.52-77.87-65.5-117.2
			C1665.14,957.61,1663.63,958.09,1662.12,958.58z"/>
		<path class="st0" d="M897.18,1106.11c-36.99,3.17-70.32,2.19-105.19,1.06c0-125.09,0-247.74,0-369.28
			c6.41-6.67,13.37-5.69,19.9-5.75c19.99-0.17,40,0.39,59.98-0.24c14.9-0.47,25.26,5.48,33.29,17.79
			c29.63,45.44,59.56,90.7,89.58,135.89c3.23,4.86,4.87,11.47,11.81,13.49c6.03-4.15,3.52-10.31,3.55-15.44
			c0.25-41.53-0.05-83.05,0.29-124.58c0.19-23.43,3.78-26.73,26.93-26.92c19.99-0.17,39.99-0.01,59.98-0.02
			c7.34,0,14.42,0.62,19.62,7.31c3.12,5.41,2.23,11.69,2.23,17.77c0.06,108.69,0.08,217.38,0.03,326.07
			c-0.01,22.15-2.43,24.39-24.98,24.42c-25.53,0.03-51.07,0.01-76.07,0.01c-39.26-57.02-75.37-113.94-115.6-167.94
			c-1.78,0.35-3.57,0.71-5.35,1.06C897.18,995.35,897.18,1049.89,897.18,1106.11z"/>
		<path class="st0" d="M1279.81,1052.37c-8.63,10.35-9.68,24.74-14.47,37.49c-4.56,12.12-11.34,18.48-24.75,18.28
			c-28.09-0.42-56.19-0.13-81.93-0.13c-13.12-9.49-8.13-19.6-5.28-28.29c11.78-35.91,24.38-71.55,36.64-107.3
			c24.53-71.51,49.23-142.97,73.44-214.59c7.55-22.33,10.62-25.53,33.38-25.69c27.15-0.19,54.3,0.18,81.44-0.26
			c14.32-0.23,22.38,5.64,27.03,19.53c29.36,87.66,59.32,175.12,89.06,262.65c9.19,27.06,18.29,54.14,26.91,79.65
			c-2.05,8.6-6.09,13.73-12.83,13.82c-31.64,0.41-63.29,0.18-94.03,0.18c-13.86-16.54-14.02-36.78-23.62-55.33
			C1355.14,1052.37,1318.64,1052.37,1279.81,1052.37z M1366.89,957.8c-10.11-30.13-19.54-58.25-28.98-86.37
			c-14.7,27.74-23.71,56.15-31.42,86.62C1327.62,961.22,1346.03,961.79,1366.89,957.8z"/>
		<path class="st0" d="M1093.22,1143.9c15.22-15.5,31.6-8.14,49.03-8.21c5.88,26.78,11.59,52.79,17.3,78.8
			c15.96-24.92,15.54-54.17,28.79-78.31c13.45-2.57,25.55-2.14,38.57-0.14c12.41,26.21,12.53,56.48,27.19,86.97
			c6.65-31.49,12.37-58.61,18.25-86.45c16.1-2.84,31-3.25,46.85,0.42c2.83,18.78-5.26,34.99-8.55,51.67
			c-7.21,36.62-16.92,72.74-24.49,109.3c-2.59,12.51-8.31,17.7-20.69,17.19c-10.65-0.44-21.34-0.09-31.63-0.09
			c-14.28-23.57-14.57-50.77-25.2-74.05c-1.31,0.14-2.63,0.27-3.94,0.41c-5.1,18.47-10.93,36.77-15.04,55.46
			c-2.97,13.51-9.97,19.18-23.52,18.39c-9.62-0.56-19.3-0.11-31.8-0.11C1120.58,1257.85,1107.04,1201.44,1093.22,1143.9z"/>
		<path class="st0" d="M842.57,1249.89c-6.45,15.52-4,25.87-4.46,35.96c-0.46,10.17,1.06,20.79-9.21,28.56
			c-10.51,1.34-21.61,1.81-32.4-0.19c-7.06-11.45-9.17-157.21-1.98-178.92c30.52,0.61,62.48-5.77,93.13,3.45
			c45.86,13.8,56.73,65.21,22.3,98.71c-2.17,2.11-5.05,3.51-7.76,5.35c7.68,23.1,23.71,40.09,30.16,61.17
			c-12.96,18.33-30.42,9.08-43.72,11C867.17,1297.71,865.44,1268,842.57,1249.89z M841.49,1179.61c-6.8,9.85-6.08,19.35-1.59,29.93
			c10.3,4.41,20.54,2.63,31.13-0.49c6.4-6.73,10.82-14.39,3.88-22.79C865.81,1175.27,853.53,1177.23,841.49,1179.61z"/>
		<path class="st0" d="M1540.51,1314.74c-11.54,0-21.19,0-29.98,0c-7.55-5.12-9.12-11.95-9.42-19.34
			c-1.94-48.11-1.76-96.22-0.62-144.34c0.11-4.66,0.77-9.2,4.68-13.22c6.84-5.18,15.36-3.15,23.3-2.84
			c23.42,0.93,47.24-3.7,70.23,3.51c40.1,12.58,53.95,55.75,28.99,89.71c-4.2,5.72-9.09,10.93-14.63,17.51
			c10.49,19.51,21.03,39.11,31.52,58.63c-13.26,17.51-30.62,8.77-45.61,10.61c-20.04-17.16-22.09-46.79-44.2-64.17
			C1542.8,1273.17,1559.78,1297.83,1540.51,1314.74z M1552.1,1210.46c10.48,3.53,21.5,4.11,31.6-2.29
			c7.61-4.82,7.58-12.67,4.63-21.1c-10.57-9.74-22.72-11.57-35.96-6.78C1548.2,1194.08,1548.18,1195.4,1552.1,1210.46z"/>
		<path class="st0" d="M1665.68,1135.47c35.49-0.15,67.16-4.85,98.09,5.38c30.11,9.96,40.91,34.31,46.77,62.81
			c8.41,40.91-8.51,84.09-40.88,100.87c-11.36,5.89-23.64,9.92-36.48,10.27c-20.91,0.57-41.86,0.15-66.89,0.15
			C1664.96,1255.38,1665.87,1196.69,1665.68,1135.47z M1712.94,1263.5c19.4,12.51,38.54,6.11,43.87-13.52
			c4.36-16.05,4.9-32.42,0.95-48.72c-3.27-13.51-15.47-23.2-28.9-23.07c-9.53,0.09-15.9,3.81-15.91,14.41
			C1712.93,1216.14,1712.94,1239.68,1712.94,1263.5z"/>
		<path class="st0" d="M1076.49,1175.89c-24.56,7.24-49.03,0.53-71.86,5.06c-5.06,6.33-4.36,12.13-1.09,19.99
			c17.86,5.02,37.62-0.18,56.53,3.37c9.29,9.08,10.91,19.74,6.57,31.13c-4.57,11.98-15.59,9.28-25.06,9.84
			c-12.64,0.75-25.54-2.36-37.93,2.04c-4.57,6.52-2.7,12.8-1.18,20.07c24.44,8.41,50.44-1.16,75.6,7.78
			c3.19,13.36,6.07,26.45-5.62,39.21c-34.57,0-69.32-0.07-104.08,0.06c-7,0.03-11.28-3.94-17.09-10.67c0-29.33,0.03-60.5-0.01-91.68
			c-0.03-19.97-0.1-39.95-0.25-59.92c-0.07-9.56,3.85-16.72,13.81-16.84c33.78-0.43,67.58-0.13,101.37,0.11
			c2.35,0.02,4.69,1.74,7.7,2.93C1080.22,1150.39,1076.91,1162.85,1076.49,1175.89z"/>
		<path class="st0" d="M1484.13,1303.74c-12.68,17.48-29.54,9.92-43.51,11.03c-12.21-5.64-11.18-19.08-19.89-27.4
			c-13.67-1.62-28.28-2.53-42,0.22c-10.57,6.72-7.22,21.66-20.91,27.32c-12.06-2.12-28.39,7.03-41.87-9.76
			c19.09-55.98,38.43-112.69,57.76-169.35c20.04-0.88,37.17-3.2,54.35,1.07C1447.02,1193.3,1465.67,1248.81,1484.13,1303.74z
			 M1399.61,1203.92c-6.04,12.52-12.1,24.54-10.5,38.44c7.86,3.33,14.44,3.98,21.2-1.26
			C1411.87,1227.46,1404.72,1216.08,1399.61,1203.92z"/>
		<path class="st0" d="M1828.86,1259.54c16.74-4.42,31.64-7.49,44.92,8.57c9.07,10.97,22.05,11.94,34.3,3.87
			c3.8-4.94,4.01-9.69,0.9-15.51c-13.07-8.03-28.73-11.38-43.4-17.1c-34.81-13.57-48.96-47.47-32.58-78.3
			c6.82-12.83,18.78-18.65,31.47-22.92c27.85-9.37,54.64-7.13,78.93,10.35c14.13,10.17,17.46,23.17,10.79,40.42
			c-15.06,2.75-30.46,7.94-44.41-6.68c-8.87-9.29-20.12-8.25-30.79-4.03c-3.97,5.24-3.87,9.99-0.49,15.72
			c13.61,7.92,29.95,10.78,45.16,16.55c30.85,11.71,41.18,29.8,36.14,65.25c-2.69,18.91-28.83,39.18-52.64,39.85
			c-19.79,0.55-39.73,2.72-58.45-7.62C1828.52,1296.81,1821.67,1282.41,1828.86,1259.54z"/>
	</g>
</g>
</svg>
